<svg viewBox="0 0 16 16" fill="none" xmlns="http://www.w3.org/2000/svg" id="X--Streamline-Unicons" height="16" width="16">
  <desc>
    X Streamline Icon: https://streamlinehq.com
  </desc>
  <path d="M4.515533333333333 14.0978c-0.6930666666666667 0 -1.3578000000000001 -0.2754 -1.8478666666666665 -0.7654666666666667 -0.4901333333333333 -0.49006666666666665 -0.7654666666666667 -1.1547999999999998 -0.7654666666666667 -1.8478666666666665V4.515533333333333c0 -0.6930666666666667 0.2753333333333333 -1.3578000000000001 0.7654666666666667 -1.8478666666666665 0.49006666666666665 -0.4901333333333333 1.1547999999999998 -0.7654666666666667 1.8478666666666665 -0.7654666666666667 0.23106666666666667 0 0.45259999999999995 -0.09173333333333333 0.616 -0.2551333333333333 0.16333333333333333 -0.16333333333333333 0.2551333333333333 -0.38493333333333335 0.2551333333333333 -0.6159333333333333s-0.09179999999999999 -0.45259999999999995 -0.2551333333333333 -0.616C4.968133333333333 0.25179999999999997 4.7466 0.15999999999999998 4.515533333333333 0.15999999999999998c-1.1551333333333331 0 -2.263 0.45886666666666664 -3.0797999999999996 1.2757333333333332C0.6188666666666667 2.252533333333333 0.15999999999999998 3.3604000000000003 0.15999999999999998 4.515533333333333v6.968933333333333c0 1.1551333333333331 0.45886666666666664 2.2630666666666666 1.2757333333333332 3.0797999999999996 0.8168 0.8168666666666666 1.9246666666666665 1.2757333333333332 3.0797999999999996 1.2757333333333332 0.23106666666666667 0 0.45259999999999995 -0.09179999999999999 0.616 -0.2551333333333333 0.16333333333333333 -0.16333333333333333 0.2551333333333333 -0.38493333333333335 0.2551333333333333 -0.616 0 -0.23099999999999998 -0.09179999999999999 -0.45259999999999995 -0.2551333333333333 -0.6159333333333333 -0.1634 -0.16333333333333333 -0.38493333333333335 -0.2551333333333333 -0.616 -0.2551333333333333Zm6.716266666666667 -2.866c0.08166666666666667 -0.08099999999999999 0.14646666666666666 -0.17733333333333334 0.19073333333333334 -0.2834 0.044199999999999996 -0.10619999999999999 0.06693333333333333 -0.22006666666666666 0.06693333333333333 -0.3350666666666667s-0.02273333333333333 -0.2288 -0.06693333333333333 -0.33499999999999996c-0.04426666666666666 -0.10613333333333333 -0.10906666666666666 -0.20246666666666668 -0.19073333333333334 -0.28346666666666664L9.228266666666666 8l2.0035333333333334 -1.9948666666666668c0.16406666666666667 -0.16399999999999998 0.2562 -0.3864666666666666 0.2562 -0.6184666666666666s-0.09213333333333332 -0.45446666666666663 -0.2562 -0.6184666666666666c-0.16399999999999998 -0.16406666666666667 -0.3864666666666666 -0.2562 -0.6184666666666666 -0.2562s-0.45446666666666663 0.09213333333333332 -0.6184666666666666 0.2562L8 6.771733333333334 6.005133333333333 4.7682c-0.16399999999999998 -0.16406666666666667 -0.3864666666666666 -0.2562 -0.6184666666666666 -0.2562s-0.45446666666666663 0.09213333333333332 -0.6184666666666666 0.2562c-0.16406666666666667 0.16399999999999998 -0.2562 0.3864666666666666 -0.2562 0.6184666666666666s0.09213333333333332 0.45446666666666663 0.2562 0.6184666666666666L6.771733333333334 8l-2.0035333333333334 1.9948666666666668c-0.08166666666666667 0.08099999999999999 -0.14646666666666666 0.17733333333333334 -0.19066666666666665 0.28346666666666664 -0.04426666666666666 0.10613333333333333 -0.067 0.22 -0.067 0.33499999999999996s0.02273333333333333 0.22886666666666666 0.067 0.33499999999999996c0.044199999999999996 0.10613333333333333 0.109 0.20246666666666668 0.19066666666666665 0.28346666666666664 0.08093333333333333 0.08166666666666667 0.17733333333333334 0.14646666666666666 0.28346666666666664 0.19073333333333334 0.10613333333333333 0.044199999999999996 0.22 0.06693333333333333 0.33499999999999996 0.06693333333333333 0.11499999999999999 0 0.22886666666666666 -0.02273333333333333 0.33499999999999996 -0.06693333333333333 0.10619999999999999 -0.04426666666666666 0.20253333333333334 -0.10906666666666666 0.2835333333333333 -0.19073333333333334L8 9.228266666666666l1.9948666666666668 2.0035333333333334c0.08099999999999999 0.08166666666666667 0.17733333333333334 0.14646666666666666 0.28346666666666664 0.19073333333333334 0.10619999999999999 0.044199999999999996 0.22 0.06693333333333333 0.33499999999999996 0.06693333333333333s0.22886666666666666 -0.02273333333333333 0.3350666666666667 -0.06693333333333333c0.10606666666666666 -0.04426666666666666 0.20239999999999997 -0.10906666666666666 0.28346666666666664 -0.19073333333333334ZM11.484466666666666 0.15999999999999998c-0.23106666666666667 0 -0.45266666666666666 0.09179999999999999 -0.616 0.2551333333333333 -0.16333333333333333 0.1634 -0.2551333333333333 0.38493333333333335 -0.2551333333333333 0.616s0.09179999999999999 0.45259999999999995 0.2551333333333333 0.6159333333333333c0.16333333333333333 0.1634 0.38493333333333335 0.2551333333333333 0.616 0.2551333333333333 0.6930666666666667 0 1.3578000000000001 0.2753333333333333 1.8478666666666665 0.7654666666666667 0.49006666666666665 0.49006666666666665 0.7654666666666667 1.1547999999999998 0.7654666666666667 1.8478666666666665v6.968933333333333c0 0.6930000000000001 -0.2754 1.3578000000000001 -0.7654666666666667 1.8478666666666665 -0.49006666666666665 0.49006666666666665 -1.1547999999999998 0.7654666666666667 -1.8478666666666665 0.7654666666666667 -0.23106666666666667 0 -0.45266666666666666 0.09179999999999999 -0.616 0.2551333333333333s-0.2551333333333333 0.38493333333333335 -0.2551333333333333 0.6159333333333333c0 0.23106666666666667 0.09179999999999999 0.45266666666666666 0.2551333333333333 0.616s0.38493333333333335 0.2551333333333333 0.616 0.2551333333333333c1.1551333333333331 0 2.2630666666666666 -0.45886666666666664 3.0797999999999996 -1.2757333333333332 0.8168666666666666 -0.8167333333333333 1.2757333333333332 -1.9246666666666665 1.2757333333333332 -3.0797999999999996V4.515533333333333c0 -1.1551333333333331 -0.45886666666666664 -2.263 -1.2757333333333332 -3.0797999999999996C13.747533333333333 0.6188666666666667 12.639599999999998 0.15999999999999998 11.484466666666666 0.15999999999999998Z" fill="#000000" stroke-width="0.6667"></path>
</svg>